<?xml version="1.0" standalone="no"?><!DOCTYPE svg PUBLIC "-//W3C//DTD SVG 1.1//EN" "http://www.w3.org/Graphics/SVG/1.1/DTD/svg11.dtd"><svg t="1600309185966" class="icon" viewBox="0 0 1024 1024" version="1.1" xmlns="http://www.w3.org/2000/svg" p-id="1297" xmlns:xlink="http://www.w3.org/1999/xlink" width="200" height="200"><defs><style type="text/css"></style></defs><path d="M540.9 523.8m-420.2 0a420.2 420.2 0 1 0 840.4 0 420.2 420.2 0 1 0-840.4 0Z" fill="#FFCC00" p-id="1298"></path><path d="M215.5 356.1c-1.1 0-2.3-0.3-3.4-0.8-3.6-1.9-5-6.3-3.1-9.9 13.2-25.4 29.4-49.5 48-71.5a7.3 7.3 0 0 1 10.3-0.9 7.3 7.3 0 0 1 0.9 10.3 378.06 378.06 0 0 0-46.2 68.8c-1.3 2.6-3.9 4-6.5 4zM811.1 710.6c-1.4 0-2.8-0.4-4-1.2-3.4-2.2-4.3-6.8-2.1-10.1 8.7-13.2 16.7-27.2 23.7-41.5 1.8-3.6 6.2-5.1 9.8-3.4 3.6 1.8 5.1 6.2 3.4 9.8-7.3 14.8-15.5 29.3-24.6 43.1-1.4 2.1-3.8 3.3-6.2 3.3zM289.1 257.6c-1.9 0-3.8-0.7-5.3-2.2-2.8-2.9-2.7-7.5 0.2-10.4l3-2.9c2.9-2.8 7.6-2.7 10.4 0.3 2.8 2.9 2.7 7.6-0.3 10.4l-2.9 2.8c-1.4 1.3-3.2 2-5.1 2z" fill="#FFFFFF" p-id="1299"></path><path d="M194 219.6c-2 0-4-0.8-5.4-2.4-2.7-3-2.5-7.6 0.5-10.3 2-1.8 4-3.7 6.1-5.5 3-2.7 7.7-2.4 10.3 0.7 2.7 3 2.4 7.7-0.7 10.3-2 1.7-3.9 3.5-5.9 5.3-1.3 1.3-3.1 1.9-4.9 1.9zM492.4 935.2c-235.8 0-427.6-191.8-427.6-427.6 0-97.2 33.5-192.3 94.3-267.9 2.5-3.1 7.2-3.6 10.3-1.1 3.2 2.5 3.6 7.1 1.1 10.3-58.7 73-91 164.8-91 258.7 0 227.7 185.2 412.9 412.9 412.9 126.7 0 244.5-56.9 323.4-156.2 2.5-3.2 7.1-3.7 10.3-1.2s3.7 7.1 1.2 10.3c-81.7 102.9-203.7 161.8-334.9 161.8zM859.2 720.2c-1.2 0-2.4-0.3-3.6-0.9-3.5-2-4.8-6.4-2.8-10 34.4-61.3 52.5-131 52.5-201.7 0-227.7-185.2-412.9-412.9-412.9-74.1 0-146.8 19.9-210.2 57.5-3.5 2.1-8 0.9-10-2.6-2.1-3.5-0.9-8 2.6-10 65.7-38.9 140.9-59.5 217.7-59.5C728.2 80.1 920 271.9 920 507.6c0 73.2-18.8 145.4-54.4 208.8-1.3 2.5-3.8 3.8-6.4 3.8z" p-id="1300"></path><path d="M651.2 493.2c-5.7-5.7-15-5.7-20.7 0l-97 97V300.5c0-8-6.5-14.6-14.6-14.6-8 0-14.6 6.5-14.6 14.6V590l-96.8-96.8c-5.7-5.7-15-5.7-20.7 0s-5.7 15 0 20.7l121.4 121.4 0.8 0.8 9.9 9.9 9.8-9.8c0.3-0.3 0.7-0.6 1-1l121.5-121.3c5.7-5.7 5.7-15 0-20.7zM701.7 761.8H336.2c-8.1 0-14.6-6.6-14.6-14.6s6.6-14.6 14.6-14.6h365.4c8.1 0 14.6 6.6 14.6 14.6s-6.4 14.6-14.5 14.6z" fill="#FFFFFF" p-id="1301"></path></svg>