<?xml version="1.0" standalone="no"?><!DOCTYPE svg PUBLIC "-//W3C//DTD SVG 1.1//EN" "http://www.w3.org/Graphics/SVG/1.1/DTD/svg11.dtd"><svg t="1600309302508" class="icon" viewBox="0 0 1024 1024" version="1.1" xmlns="http://www.w3.org/2000/svg" p-id="2546" xmlns:xlink="http://www.w3.org/1999/xlink" width="200" height="200"><defs><style type="text/css"></style></defs><path d="M311.1 251.3s-0.1 0 0 0c-3.1 0-5.9-1.2-7.9-3.3-2.1-2.1-3.2-4.9-3.2-7.9s1.2-5.8 3.3-7.9c2.1-2.1 4.9-3.2 7.8-3.2h0.1c3 0 5.8 1.2 7.9 3.3 2.1 2.1 3.2 4.9 3.2 7.9s-1.2 5.8-3.3 7.9c-2.2 2.1-5 3.2-7.9 3.2z m0-14.8c-1 0-1.9 0.4-2.6 1.1s-1.1 1.6-1.1 2.6 0.4 1.9 1.1 2.6c0.7 0.7 1.6 1 2.6 1.1 1 0 1.9-0.4 2.6-1.1s1.1-1.6 1.1-2.6-0.4-1.9-1.1-2.6c-0.7-0.7-1.6-1.1-2.6-1.1z" fill="#4CD964" p-id="2547"></path><path d="M530.9 541.3m-329.4 0a329.4 329.4 0 1 0 658.8 0 329.4 329.4 0 1 0-658.8 0Z" fill="#FFCC00" p-id="2548"></path><path d="M309.6 372.8c-1.6 0-3.2-0.5-4.6-1.6-3.2-2.5-3.8-7.2-1.3-10.4 13.5-17.2 29.1-32.6 46.5-45.8 3.3-2.5 7.9-1.8 10.4 1.4 2.5 3.3 1.8 7.9-1.4 10.4-16.4 12.4-31.1 26.9-43.8 43.1-1.4 1.9-3.6 2.9-5.8 2.9z" fill="#FFFFFF" p-id="2549"></path><path d="M190.3 720.8h-0.5c-74-4.4-117.5-23.3-125.9-54.6-11.9-44.4 50-92 104-124.1 3.5-2.1 8.1-0.9 10.2 2.6 2.1 3.5 0.9 8.1-2.6 10.2C106.4 596 71 635.1 78.3 662.3c6.4 23.8 47.3 39.7 112.4 43.6 4.1 0.2 7.2 3.8 7 7.9-0.3 3.9-3.5 7-7.4 7zM262.8 720.8c-3.9 0-7.2-3.1-7.4-7.1-0.2-4.1 3-7.6 7.1-7.8 81.8-4.1 177.3-20.2 276.2-46.7 98.4-26.4 188.8-59.9 261.6-97.1 3.7-1.9 8.1-0.4 10 3.2s0.4 8.1-3.2 10C733.4 613 642 646.9 542.6 673.6c-99.9 26.8-196.5 43.1-279.3 47.2h-0.5zM856.1 546.6c-2.5 0-4.9-1.2-6.3-3.5-2.2-3.5-1.1-8.1 2.4-10.3 62-38.7 93.6-75.5 86.7-101.1-7.2-26.9-56.6-43.1-135.4-44.4-4.1-0.1-7.4-3.5-7.3-7.6 0.1-4.1 3.5-7.1 7.6-7.3 88.5 1.5 140.2 20.7 149.5 55.5 8.9 33.3-23.3 74-93.2 117.6-1.3 0.7-2.7 1.1-4 1.1z" p-id="2550"></path><path d="M824.6 464.4c9.4 1.7 18.8 3.6 28 5.9-22.8-103.8-94.5-189.2-189.8-230.9 82.9 46.9 143.3 128.5 161.8 225z" fill="#FFCC00" p-id="2551"></path><path d="M328.5 253.3c-2.5 0-4.9-1.3-6.3-3.5-2.2-3.5-1.1-8.1 2.4-10.2 2-1.2 3.9-2.4 5.9-3.6 3.6-2.1 8.1-0.9 10.2 2.6 2.1 3.5 0.9 8.1-2.6 10.2-1.9 1.1-3.8 2.3-5.7 3.4-1.2 0.8-2.6 1.1-3.9 1.1zM501.1 863.3c-185.7 0-336.8-151.1-336.8-336.8 0-106.2 48.6-204.1 133.3-268.4 3.3-2.5 7.9-1.9 10.4 1.4s1.8 7.9-1.4 10.4c-81 61.5-127.4 155-127.4 256.5 0 177.5 144.4 321.9 321.9 321.9 99.5 0 191.9-44.9 253.4-123.3 2.5-3.2 7.2-3.8 10.4-1.3s3.8 7.2 1.3 10.4c-64.3 82.2-161 129.2-265.1 129.2z" p-id="2552"></path><path d="M722.4 725.4c-1.8 0-3.7-0.7-5.1-2-3-2.8-3.1-7.5-0.3-10.5 10.7-11.4 20.6-23.8 29.4-37l2.3-3.6c2.2-3.5 6.8-4.4 10.3-2.2 3.5 2.2 4.4 6.8 2.2 10.3l-2.5 3.8c-9.2 13.8-19.6 26.9-30.9 38.9-1.4 1.5-3.4 2.3-5.4 2.3z" fill="#FFFFFF" p-id="2553"></path><path d="M800.9 670.5c-1 0-2.1-0.2-3.1-0.7-3.7-1.7-5.4-6.1-3.7-9.9 19.2-42 28.9-87 28.9-133.5 0-177.5-144.4-321.9-321.9-321.9-37.9 0-75 6.5-110.3 19.4-3.9 1.4-8.1-0.6-9.5-4.4-1.4-3.9 0.6-8.1 4.4-9.5 36.9-13.5 75.8-20.3 115.4-20.3 185.7 0 336.8 151.1 336.8 336.8 0 48.7-10.2 95.7-30.2 139.7-1.2 2.7-3.9 4.3-6.8 4.3z" p-id="2554"></path><path d="M315.9 547m-20.6 0a20.6 20.6 0 1 0 41.2 0 20.6 20.6 0 1 0-41.2 0Z" fill="#FF3B30" p-id="2555"></path><path d="M624.7 423.5m-41.2 0a41.2 41.2 0 1 0 82.4 0 41.2 41.2 0 1 0-82.4 0Z" fill="#4CD964" p-id="2556"></path><path d="M562.9 706m-20.6 0a20.6 20.6 0 1 0 41.2 0 20.6 20.6 0 1 0-41.2 0Z" fill="#FF9500" p-id="2557"></path><path d="M838.3 756.7m-4.4 0a4.4 4.4 0 1 0 8.8 0 4.4 4.4 0 1 0-8.8 0Z" fill="#FF3B30" p-id="2558"></path><path d="M838.7 698.3m-7.8 0a7.8 7.8 0 1 0 15.6 0 7.8 7.8 0 1 0-15.6 0Z" fill="#FFCC00" p-id="2559"></path><path d="M774.9 797.8m-4.1 0a4.1 4.1 0 1 0 8.2 0 4.1 4.1 0 1 0-8.2 0Z" fill="#FFCC00" p-id="2560"></path><path d="M797.4 744.9h-0.1c-4 0-7.7-1.6-10.5-4.4-2.8-2.8-4.3-6.6-4.3-10.6s1.6-7.7 4.4-10.5c2.8-2.8 6.5-4.3 10.4-4.3h0.1c4 0 7.7 1.6 10.5 4.4 2.8 2.8 4.3 6.6 4.3 10.6s-1.6 7.7-4.4 10.5a14.6 14.6 0 0 1-10.4 4.3z m0-22.3c-2 0-3.8 0.8-5.2 2.1-1.4 1.4-2.2 3.3-2.2 5.2 0 2 0.7 3.9 2.1 5.3 1.4 1.4 3.3 2.2 5.3 2.2h0.1c2 0 3.8-0.8 5.2-2.1 1.4-1.4 2.2-3.3 2.2-5.2 0-2-0.7-3.9-2.1-5.3-1.5-1.4-3.4-2.2-5.4-2.2z" fill="#FF9500" p-id="2561"></path><path d="M448.7 422.5m-11.2 0a11.2 11.2 0 1 0 22.4 0 11.2 11.2 0 1 0-22.4 0Z" fill="#4CD964" p-id="2562"></path><path d="M865.8 720m-3.7 0a3.7 3.7 0 1 0 7.4 0 3.7 3.7 0 1 0-7.4 0Z" fill="#FF9500" p-id="2563"></path><path d="M860.8 767.3m-3.4 0a3.4 3.4 0 1 0 6.8 0 3.4 3.4 0 1 0-6.8 0Z" fill="#4CD964" p-id="2564"></path><path d="M797.6 766.9m-3.4 0a3.4 3.4 0 1 0 6.8 0 3.4 3.4 0 1 0-6.8 0Z" fill="#4CD964" p-id="2565"></path><path d="M324.9 198.6m-4.4 0a4.4 4.4 0 1 0 8.8 0 4.4 4.4 0 1 0-8.8 0Z" fill="#FF3B30" p-id="2566"></path><path d="M369.9 199.8m-7.8 0a7.8 7.8 0 1 0 15.6 0 7.8 7.8 0 1 0-15.6 0Z" fill="#FFCC00" p-id="2567"></path><path d="M261.5 239.8m-4.1 0a4.1 4.1 0 1 0 8.2 0 4.1 4.1 0 1 0-8.2 0Z" fill="#FFCC00" p-id="2568"></path><path d="M352.5 162m-3.7 0a3.7 3.7 0 1 0 7.4 0 3.7 3.7 0 1 0-7.4 0Z" fill="#FF9500" p-id="2569"></path><path d="M347.4 209.3m-3.4 0a3.4 3.4 0 1 0 6.8 0 3.4 3.4 0 1 0-6.8 0Z" fill="#4CD964" p-id="2570"></path><path d="M284.2 208.9m-3.4 0a3.4 3.4 0 1 0 6.8 0 3.4 3.4 0 1 0-6.8 0Z" fill="#4CD964" p-id="2571"></path><path d="M386.8 300.1m-7.4 0a7.4 7.4 0 1 0 14.8 0 7.4 7.4 0 1 0-14.8 0Z" fill="#FFFFFF" p-id="2572"></path></svg>