<?xml version="1.0" standalone="no"?><!DOCTYPE svg PUBLIC "-//W3C//DTD SVG 1.1//EN" "http://www.w3.org/Graphics/SVG/1.1/DTD/svg11.dtd"><svg t="1600309253461" class="icon" viewBox="0 0 1024 1024" version="1.1" xmlns="http://www.w3.org/2000/svg" p-id="2079" xmlns:xlink="http://www.w3.org/1999/xlink" width="200" height="200"><defs><style type="text/css"></style></defs><path d="M925 849.7H134c-19.5 0-35.3-15.8-35.3-35.3V238.7c0-19.5 15.8-35.3 35.3-35.3h791c19.5 0 35.3 15.8 35.3 35.3v575.6c0.1 19.6-15.8 35.4-35.3 35.4z" fill="#FFCC00" p-id="2080"></path><path d="M70.4 390.3c-3.9 0-7.1-3.2-7.1-7.1v-4.4c0-3.9 3.2-7.1 7.1-7.1 3.9 0 7.1 3.2 7.1 7.1v4.4c0 3.9-3.2 7.1-7.1 7.1zM569.2 842.6H105.7c-23.4 0-42.4-19-42.4-42.4V413.5c0-3.9 3.2-7.1 7.1-7.1 3.9 0 7.1 3.2 7.1 7.1v386.7c0 15.6 12.7 28.3 28.3 28.3h463.5c3.9 0 7.1 3.2 7.1 7.1-0.1 3.9-3.3 7-7.2 7zM896.8 842.6H661.9c-3.9 0-7.1-3.2-7.1-7.1 0-3.9 3.2-7.1 7.1-7.1h234.8c15.6 0 28.3-12.7 28.3-28.3v-180c0-3.9 3.2-7.1 7.1-7.1s7.1 3.2 7.1 7.1v180.1c0 23.4-19 42.4-42.4 42.4zM932.1 541.3c-3.9 0-7.1-3.2-7.1-7.1V224.6c0-15.6-12.7-28.3-28.3-28.3h-791c-15.6 0-28.3 12.7-28.3 28.3v89.5c0 3.9-3.2 7.1-7.1 7.1-3.9 0-7.1-3.2-7.1-7.1v-89.5c0-23.4 19-42.4 42.4-42.4h791.1c23.4 0 42.4 19 42.4 42.4v309.6c0.1 3.9-3.1 7.1-7 7.1z" p-id="2081"></path><path d="M178.1 734.9c-1.8 0-3.6-0.7-5-2.1-2.8-2.8-2.8-7.2 0-10l149.6-149.6c11.2-11.3 29.6-11.3 40.9 0l65.4 65.4c5.6 5.6 15.3 5.6 20.9 0l175.4-175.4c5.5-5.5 12.7-8.5 20.4-8.5 7.7 0 15 3 20.4 8.5l163.3 163.3c2.8 2.8 2.8 7.2 0 10s-7.2 2.8-10 0L656.1 473.3c-5.6-5.6-15.3-5.6-20.9 0L459.8 648.7c-5.5 5.5-12.7 8.5-20.4 8.5s-15-3-20.4-8.5l-65.4-65.4c-5.6-5.6-15.3-5.6-20.9 0L183.1 732.8c-1.4 1.4-3.2 2.1-5 2.1z" fill="#FFFFFF" p-id="2082"></path><path d="M564.5 590.4c-1.8 0-3.6-0.7-5-2.1-2.8-2.8-2.8-7.2 0-10l49.7-49.7c2.8-2.8 7.2-2.8 10 0s2.8 7.2 0 10l-49.7 49.7c-1.3 1.4-3.2 2.1-5 2.1zM296.4 666c-1.8 0-3.6-0.7-5-2.1-2.8-2.8-2.8-7.2 0-10l20.6-20.6c2.8-2.8 7.2-2.8 10 0s2.8 7.2 0 10L301.4 664c-1.4 1.4-3.2 2-5 2zM134 427.7c-3.9 0-7.1-3.2-7.1-7.1v-49.4c0-3.9 3.2-7.1 7.1-7.1s7.1 3.2 7.1 7.1v49.4c-0.1 3.9-3.2 7.1-7.1 7.1z" fill="#FFFFFF" p-id="2083"></path><path d="M134 455.9m-7.1 0a7.1 7.1 0 1 0 14.2 0 7.1 7.1 0 1 0-14.2 0Z" fill="#FFFFFF" p-id="2084"></path><path d="M600.1 802h-70.6c-3.9 0-7.1-3.2-7.1-7.1 0-3.9 3.2-7.1 7.1-7.1h70.6c3.9 0 7.1 3.2 7.1 7.1 0 3.9-3.2 7.1-7.1 7.1z" fill="#FFFFFF" p-id="2085"></path><path d="M265.9 342.9m-68 0a68 68 0 1 0 136 0 68 68 0 1 0-136 0Z" fill="#FFFFFF" p-id="2086"></path><path d="M272.7 390.3c-3.5 0-6.5-2.6-7-6.1-0.5-3.9 2.2-7.4 6.1-7.9 10-1.3 18.5-8.4 21.6-17.9 1.2-3.7 5.2-5.7 8.9-4.5 3.7 1.2 5.7 5.2 4.5 8.9-4.8 14.6-17.8 25.4-33.1 27.5-0.4-0.1-0.7 0-1 0z" fill="#FFCC00" p-id="2087"></path><path d="M305.8 338.7m-7.1 0a7.1 7.1 0 1 0 14.2 0 7.1 7.1 0 1 0-14.2 0Z" fill="#FFCC00" p-id="2088"></path></svg>