<?xml version="1.0" standalone="no"?><!DOCTYPE svg PUBLIC "-//W3C//DTD SVG 1.1//EN" "http://www.w3.org/Graphics/SVG/1.1/DTD/svg11.dtd"><svg t="1600309219091" class="icon" viewBox="0 0 1024 1024" version="1.1" xmlns="http://www.w3.org/2000/svg" p-id="1603" xmlns:xlink="http://www.w3.org/1999/xlink" width="200" height="200"><defs><style type="text/css"></style></defs><path d="M888.8 958.2c-13.4-147.1-170.7-263.3-363.2-263.3S175.7 811.1 162.3 958.2h726.5z" fill="#FFCC00" p-id="1604"></path><path d="M525.6 337.3m-256.2 0a256.2 256.2 0 1 0 512.4 0 256.2 256.2 0 1 0-512.4 0Z" fill="#FFCC00" p-id="1605"></path><path d="M496.1 453.1c-46.7 0-91.4-19.9-122.6-54.6-2.7-3-2.5-7.7 0.5-10.5 3-2.7 7.7-2.5 10.5 0.5 28.5 31.6 69.1 49.6 111.6 49.6 42.4 0 83.1-18.1 111.5-49.6 2.8-3 7.5-3.3 10.5-0.5s3.3 7.5 0.5 10.5c-31.2 34.8-75.9 54.6-122.5 54.6zM323.1 145.9c-2 0-4-0.8-5.5-2.4-2.8-3-2.6-7.7 0.5-10.5 2.1-2 4.3-3.9 6.5-5.8 3.1-2.7 7.8-2.3 10.5 0.8 2.7 3.1 2.3 7.8-0.8 10.5-2.1 1.8-4.1 3.6-6.1 5.4-1.5 1.3-3.3 2-5.1 2z" p-id="1606"></path><path d="M496.1 591.1c-70.4 0-136.6-27.4-186.4-77.2-49.8-49.8-77.2-116-77.2-186.4 0-30.6 5.2-60.5 15.4-89.1 9.9-27.6 24.3-53.2 42.7-76.1 2.6-3.2 7.2-3.7 10.5-1.1 3.2 2.6 3.7 7.3 1.1 10.5-35.9 44.6-54.8 98.5-54.8 155.8 0 137.2 111.6 248.8 248.8 248.8 76.3 0 147.3-34.3 194.9-94.1 2.6-3.2 7.2-3.7 10.4-1.2 3.2 2.6 3.7 7.2 1.2 10.4-50.5 63.3-125.8 99.7-206.6 99.7zM719.7 460c-1.2 0-2.5-0.3-3.6-1-3.6-2-4.9-6.5-2.8-10.1C734 412 744.9 370 744.9 327.4c0-137.2-111.6-248.8-248.8-248.8-44.7 0-88.5 12-126.7 34.6-3.5 2.1-8.1 0.9-10.2-2.6-2.1-3.5-0.9-8.1 2.6-10.2 40.5-24 86.9-36.7 134.2-36.7 70.4 0 136.6 27.4 186.4 77.2 49.8 49.8 77.2 116 77.2 186.4 0 45.1-11.6 89.6-33.5 128.8-1.3 2.5-3.8 3.9-6.4 3.9z" p-id="1607"></path><path d="M322.1 295.2c-0.8 0-1.7-0.1-2.5-0.4-3.9-1.4-5.9-5.6-4.5-9.5 9.4-26.4 34.6-44.1 62.7-44.1 28 0 53.2 17.7 62.7 44.1 1.4 3.9-0.6 8.1-4.5 9.5-3.9 1.4-8.1-0.6-9.5-4.5-7.3-20.5-26.9-34.3-48.7-34.3-21.8 0-41.3 13.8-48.7 34.3-1.1 3-3.9 4.9-7 4.9zM558.6 295.2c-0.8 0-1.7-0.1-2.5-0.4-3.9-1.4-5.9-5.6-4.5-9.5 9.4-26.4 34.6-44.1 62.7-44.1 28 0 53.2 17.7 62.7 44.1 1.4 3.9-0.6 8.1-4.5 9.5-3.9 1.4-8.1-0.6-9.5-4.5-7.3-20.5-26.9-34.3-48.7-34.3-21.8 0-41.3 13.8-48.7 34.3-1.1 3-3.9 4.9-7 4.9zM850.8 958.5c-4.1 0-7.4-3.3-7.4-7.4 0-148-155.8-268.5-347.3-268.5-56.3 0-112.3 10.7-161.8 30.9-3.8 1.5-8.1-0.3-9.7-4.1-1.6-3.8 0.3-8.1 4.1-9.7 51.3-20.9 109.2-32 167.4-32 96.4 0 187.1 29.3 255.4 82.4 33.4 26 59.6 56.3 78 90 19.1 35.1 28.8 72.4 28.8 110.9-0.1 4.2-3.4 7.5-7.5 7.5zM282 738.5c-2.5 0-5-1.3-6.4-3.7-2.1-3.5-0.9-8.1 2.6-10.2 2.2-1.3 4.4-2.6 6.7-3.9 3.6-2 8.1-0.7 10.1 2.8 2 3.6 0.7 8.1-2.8 10.1-2.2 1.2-4.3 2.5-6.4 3.7-1.3 0.9-2.6 1.2-3.8 1.2zM141.3 958.5c-4.1 0-7.4-3.3-7.4-7.4 0-39.7 10.3-78.1 30.5-114.1 19.5-34.6 47.2-65.4 82.4-91.6 3.3-2.4 8-1.8 10.4 1.5 2.4 3.3 1.8 8-1.5 10.4-69 51.2-106.9 120-106.9 193.7 0 4.2-3.4 7.5-7.5 7.5z" p-id="1608"></path><path d="M658.3 476.3m-7 0a7 7 0 1 0 14 0 7 7 0 1 0-14 0Z" fill="#FFFFFF" p-id="1609"></path><path d="M674.7 463.4c-1.6 0-3.1-0.5-4.4-1.5-3.3-2.5-4-7.1-1.5-10.4 5.9-7.8 11.4-16.4 17.9-26.3 2.2-3.4 6.8-4.4 10.3-2.2 3.4 2.2 4.4 6.9 2.2 10.3-6.6 10.1-12.3 18.8-18.4 27-1.6 2.1-3.8 3.1-6.1 3.1z" fill="#FFFFFF" p-id="1610"></path></svg>