<?xml version="1.0" standalone="no"?><!DOCTYPE svg PUBLIC "-//W3C//DTD SVG 1.1//EN" "http://www.w3.org/Graphics/SVG/1.1/DTD/svg11.dtd"><svg t="1600308958715" class="icon" viewBox="0 0 1024 1024" version="1.1" xmlns="http://www.w3.org/2000/svg" p-id="930" xmlns:xlink="http://www.w3.org/1999/xlink" width="200" height="200"><defs><style type="text/css"></style></defs><path d="M512 668.74762534s359.15117471-16.96777203 431.26420585-411.46847181C857.01136469 125.77892028 708.54335939 39.52607911 540.27962006 39.52607911c-265.82842851 0-480.75354095 214.92511243-480.75354095 480.75354095 0 65.04312613 12.72582902 127.25829025 36.76350606 183.81753036C244.75759047 636.22606228 370.60189971 704.09715042 370.60189971 704.09715042c-89.08080318 18.38175303-156.95189131 65.04312613-207.85520741 114.53246123C251.82749548 928.92012987 387.56967175 1001.03316102 540.27962006 1001.03316102c209.26918842 0 387.43079477-134.32819526 453.88790189-320.97368763C892.36088974 718.23696045 738.23696045 735.20473248 512 668.74762534z" fill="#FFE1A1" p-id="931"></path><path d="M455.44075988 675.81753037m-63.62914513 0a63.62914512 63.62914512 0 1 0 127.25829026 0 63.62914512 63.62914512 0 1 0-127.25829026 0Z" fill="#FFFFFF" p-id="932"></path><path d="M455.44075988 633.39810029c24.03767705 0 42.41943008 18.38175303 42.41943009 42.41943008s-18.38175303 42.41943008-42.41943009 42.41943008-42.41943008-18.38175303-42.41943008-42.41943008 18.38175303-42.41943008 42.41943008-42.41943008m0-42.41943009c-46.6613731 0-84.83886017 38.17748707-84.83886017 84.83886017s38.17748707 84.83886017 84.83886017 84.83886018 84.83886017-38.17748707 84.83886018-84.83886018-38.17748707-84.83886017-84.83886018-84.83886017z" fill="#E7A207" p-id="933"></path><path d="M394.63957677 623.50023327c-7.06990501 0-15.55379103-4.24194301-18.38175304-11.31184801-5.65592402-11.31184801-147.05402429-282.79620057 18.38175304-541.55472411 5.65592402-9.89786702 19.79573404-12.72582902 29.69360106-5.65592399 9.89786702 5.65592402 12.72582902 19.79573404 5.655924 29.69360106-152.7099483 236.13482747-18.38175303 494.89335097-16.96777203 496.30733198 5.65592402 9.89786702 1.41398101 22.62369604-8.48388601 28.27962006-2.82796201 2.82796201-5.65592402 4.24194301-9.89786702 4.24194301zM172.64455933 824.28553567c-5.65592402 0-12.72582902-2.82796201-16.96777203-8.48388603-7.06990501-8.48388603-5.65592402-22.62369604 2.827962-29.69360105 142.81208129-114.53246123 217.75307444-117.36042323 224.82297945-117.36042325 11.31184801 0 21.20971504 9.89786702 21.20971504 21.20971505s-9.89786702 21.20971504-21.20971504 21.20971504c-1.41398101 0-69.28506914 4.24194301-199.3713214 108.87653722-1.41398101 2.82796201-7.06990501 4.24194301-11.31184802 4.24194302z" fill="#E7A207" p-id="934"></path><path d="M107.60143321 711.16705543c-5.65592402-2.82796201-11.31184801-8.48388603-12.72582904-15.55379101-2.82796201-12.72582902 5.65592402-25.45165805 18.38175304-26.86563908 197.95734038-41.00544908 271.48435253-7.06990501 278.55425754-2.827962 11.31184801 5.65592402 15.55379103 19.79573404 9.89786703 31.10758208-5.65592402 11.31184801-19.79573404 15.55379103-31.10758207 9.89786701-1.41398101-1.41398101-69.28506914-29.69360106-247.44667548 7.06990501-5.65592402 1.41398101-9.89786702 0-15.55379102-2.82796201z" fill="#E7A207" p-id="935"></path><path d="M753.79075148 743.6886185c-128.67227125 0-224.82297945-49.48933509-230.47890347-53.73127811-9.89786702-5.65592402-14.13981003-18.38175303-8.483886-28.27962005s18.38175303-14.13981003 28.27962006-8.48388601c2.82796201 1.41398101 217.75307444 113.11848021 424.19430083-9.89786704 9.89786702-5.65592402 22.62369604-2.82796201 29.69360107 7.06990503 5.65592402 9.89786702 2.82796201 22.62369604-7.06990503 29.69360107-82.01089817 48.07535409-164.02179632 63.62914512-236.13482746 63.62914511z" fill="#E7A207" p-id="936"></path><path d="M540.27962006 682.88743539c-11.31184801 0-19.79573404-8.48388603-21.20971505-19.79573405-1.41398101-11.31184801 8.48388603-21.20971504 19.79573405-22.62369604 14.13981003-1.41398101 349.2533077-31.10758207 376.11894673-376.11894674 1.41398101-11.31184801 11.31184801-19.79573404 22.62369606-19.79573404 11.31184801 1.41398101 19.79573404 11.31184801 19.79573403 22.62369603-29.69360106 381.77487075-411.46847181 415.71041483-415.71041482 415.71041484H540.27962006z" fill="#E7A207" p-id="937"></path></svg>