<?xml version="1.0" standalone="no"?><!DOCTYPE svg PUBLIC "-//W3C//DTD SVG 1.1//EN" "http://www.w3.org/Graphics/SVG/1.1/DTD/svg11.dtd"><svg t="1600309174332" class="icon" viewBox="0 0 1024 1024" version="1.1" xmlns="http://www.w3.org/2000/svg" p-id="1143" xmlns:xlink="http://www.w3.org/1999/xlink" width="200" height="200"><defs><style type="text/css"></style></defs><path d="M540.2 526.3m-419.1 0a419.1 419.1 0 1 0 838.2 0 419.1 419.1 0 1 0-838.2 0Z" fill="#FFCC00" p-id="1144"></path><path d="M215.6 359c-1.1 0-2.3-0.3-3.4-0.8-3.6-1.9-5-6.3-3.1-9.8C222.4 323 238.5 299 257 277a7.3 7.3 0 0 1 10.3-0.9 7.3 7.3 0 0 1 0.9 10.3c-17.8 21.1-33.3 44.2-46 68.6-1.4 2.6-3.9 4-6.6 4zM809.7 712.5c-1.4 0-2.8-0.4-4-1.2-3.4-2.2-4.3-6.7-2.1-10.1 8.7-13.2 16.6-27.1 23.6-41.3 1.8-3.6 6.1-5.1 9.8-3.4 3.6 1.8 5.1 6.1 3.4 9.8-7.2 14.8-15.5 29.2-24.5 43-1.5 2.1-3.8 3.2-6.2 3.2zM289.1 260.7c-1.9 0-3.8-0.7-5.2-2.2-2.8-2.9-2.7-7.5 0.2-10.3l3-2.9c2.9-2.8 7.5-2.7 10.3 0.3 2.8 2.9 2.7 7.6-0.3 10.3l-2.9 2.7c-1.5 1.5-3.3 2.1-5.1 2.1z" fill="#FFFFFF" p-id="1145"></path><path d="M194.2 222.9c-2 0-4-0.8-5.4-2.4-2.7-3-2.5-7.6 0.5-10.3 2-1.8 4-3.7 6.1-5.4 3-2.7 7.7-2.4 10.3 0.7 2.7 3 2.4 7.6-0.7 10.3-2 1.7-3.9 3.5-5.9 5.3-1.3 1.1-3.1 1.8-4.9 1.8zM491.8 936.6c-235.1 0-426.4-191.3-426.4-426.4 0-96.9 33.4-191.8 94-267.1 2.5-3.1 7.1-3.6 10.3-1.1 3.1 2.5 3.6 7.1 1.1 10.3C112.3 324.9 80 416.6 80 510.2 80 737.2 264.8 922 491.8 922c126.3 0 243.9-56.8 322.6-155.8 2.5-3.1 7.1-3.7 10.3-1.2 3.2 2.5 3.7 7.1 1.2 10.3-81.5 102.5-203.3 161.3-334.1 161.3zM857.7 722.2c-1.2 0-2.4-0.3-3.6-0.9-3.5-2-4.8-6.4-2.8-9.9 34.3-61.1 52.4-130.7 52.4-201.1 0-227.1-184.8-411.8-411.8-411.8-73.9 0-146.4 19.8-209.7 57.3-3.5 2.1-8 0.9-10-2.6-2.1-3.5-0.9-8 2.6-10 65.5-38.8 140.6-59.3 217.1-59.3C727 83.7 918.3 275 918.3 510.2c0 73-18.8 145-54.2 208.3-1.4 2.3-3.9 3.7-6.4 3.7z" p-id="1146"></path><path d="M487.1 653.4c-95.4 0-172.9-77.6-172.9-172.9s77.6-172.9 172.9-172.9S660 385.1 660 480.4s-77.6 173-172.9 173z m0-324c-83.3 0-151 67.7-151 151s67.7 151 151 151 151-67.7 151-151-67.8-151-151-151zM726.1 730.4c-2.8 0-5.6-1.1-7.7-3.2L630 638.8c-4.3-4.3-4.3-11.2 0-15.5 4.3-4.3 11.2-4.3 15.5 0l88.4 88.4c4.3 4.3 4.3 11.2 0 15.5-2.2 2.2-5 3.2-7.8 3.2z" fill="#FFFFFF" p-id="1147"></path><path d="M542.6 574.5c-2.4 0-4.7-1.1-6.1-3.3-2.2-3.4-1.3-7.9 2-10.1 17.9-11.9 33.4-31.6 40.3-51.4 1.3-3.8 5.5-5.8 9.3-4.5 3.8 1.3 5.8 5.5 4.5 9.3-7.9 22.7-25.6 45.2-46 58.8-1.2 0.8-2.6 1.2-4 1.2z" fill="#FFFFFF" p-id="1148"></path><path d="M517.1 580.3m-7.3 0a7.3 7.3 0 1 0 14.6 0 7.3 7.3 0 1 0-14.6 0Z" fill="#FFFFFF" p-id="1149"></path></svg>