<?xml version="1.0" standalone="no"?><!DOCTYPE svg PUBLIC "-//W3C//DTD SVG 1.1//EN" "http://www.w3.org/Graphics/SVG/1.1/DTD/svg11.dtd"><svg t="1600309196347" class="icon" viewBox="0 0 1024 1024" version="1.1" xmlns="http://www.w3.org/2000/svg" p-id="1449" xmlns:xlink="http://www.w3.org/1999/xlink" width="200" height="200"><defs><style type="text/css"></style></defs><path d="M625.4 232.3l-71.3 71.3c-15.3 15.3-40.1 15.3-55.3 0l-71.3-71.3c-77-77-201.8-77-278.8 0-73.5 73.5-73.5 192.6 0 266.1L254 603.8l257.9 257.9c8 8 21.1 8 29.1 0l257.9-257.9 105.4-105.4c73.5-73.5 73.5-192.6 0-266.1-77.1-77-201.9-77-278.9 0z" fill="#FFCC00" p-id="1450"></path><path d="M724.8 648.6c-1.9 0-3.7-0.7-5.2-2.1-2.9-2.9-2.9-7.5 0-10.3l157.5-157.5c34.2-34.2 53-79.6 53-127.9s-18.8-93.7-53-127.9c-35.9-35.9-83.5-55.6-134.2-55.6-50.7 0-98.4 19.8-134.3 55.6l-71.3 71.3c-18.1 18.1-47.6 18.1-65.7 0l-71.3-71.3c-57.9-57.9-145.9-72.2-219.1-35.6-3.6 1.8-8 0.3-9.8-3.3s-0.3-8 3.3-9.8c78.8-39.4 173.7-24 236 38.4l71.3 71.3c12.4 12.4 32.6 12.4 45 0l71.3-71.3c79.7-79.7 209.4-79.7 289.2 0 36.9 36.9 57.3 86 57.3 138.2S924.4 452 887.5 488.9L730 646.4c-1.5 1.5-3.3 2.2-5.2 2.2zM667 706.4c-1.9 0-3.7-0.7-5.2-2.1-2.9-2.9-2.9-7.5 0-10.3l5.6-5.6c2.9-2.9 7.5-2.9 10.3 0 2.9 2.9 2.9 7.5 0 10.3l-5.6 5.6c-1.4 1.4-3.3 2.1-5.1 2.1zM504.5 860.4c-7.5 0-14.5-2.9-19.7-8.2L290.1 657.5c-2.9-2.9-2.9-7.5 0-10.3 2.9-2.9 7.5-2.9 10.3 0l194.7 194.7c5 5 13.7 5 18.7 0l121-121c2.9-2.9 7.5-2.9 10.3 0 2.9 2.9 2.9 7.5 0 10.3l-121 121c-5.2 5.3-12.2 8.2-19.6 8.2z" p-id="1451"></path><path d="M660.8 661.4c-1.9 0-3.7-0.7-5.2-2.1-2.9-2.9-2.9-7.5 0-10.3l1.1-1.1c2.9-2.9 7.5-2.9 10.3 0 2.9 2.9 2.9 7.5 0 10.3l-1.1 1.1c-1.3 1.3-3.2 2.1-5.1 2.1zM582.8 739.4c-1.9 0-3.7-0.7-5.2-2.1-2.9-2.9-2.9-7.5 0-10.3l55.5-55.5c2.9-2.9 7.5-2.9 10.3 0 2.9 2.9 2.9 7.5 0 10.3l-55.5 55.5c-1.4 1.4-3.3 2.1-5.1 2.1z" fill="#FFFFFF" p-id="1452"></path><path d="M250.3 614.7c-1.9 0-3.7-0.7-5.2-2.1L121.5 488.9c-68.8-68.8-76.4-179-17.5-256.4 2.5-3.2 7-3.8 10.3-1.4 3.2 2.5 3.8 7 1.4 10.3-54.5 71.6-47.5 173.5 16.1 237.2l123.6 123.6c2.9 2.9 2.9 7.5 0 10.3-1.4 1.5-3.2 2.2-5.1 2.2zM132.2 219.5c-1.8 0-3.7-0.7-5.1-2.1-2.9-2.8-3-7.5-0.1-10.3l1.8-1.9c2.9-2.9 7.5-2.9 10.3 0 2.9 2.9 2.9 7.5 0 10.3l-1.7 1.7c-1.4 1.6-3.3 2.3-5.2 2.3z" p-id="1453"></path><path d="M145.8 312.8c-0.8 0-1.6-0.1-2.4-0.4-3.8-1.3-5.8-5.5-4.5-9.3 7.9-22.7 25.6-45.3 46.1-58.9 3.4-2.2 7.9-1.3 10.1 2 2.2 3.4 1.3 7.9-2 10.1-18 11.9-33.4 31.7-40.4 51.5-1 3.1-3.8 5-6.9 5z" fill="#FFFFFF" p-id="1454"></path><path d="M214.6 229.8m-7.3 0a7.3 7.3 0 1 0 14.6 0 7.3 7.3 0 1 0-14.6 0Z" fill="#FFFFFF" p-id="1455"></path></svg>