<?xml version="1.0" standalone="no"?><!DOCTYPE svg PUBLIC "-//W3C//DTD SVG 1.1//EN" "http://www.w3.org/Graphics/SVG/1.1/DTD/svg11.dtd"><svg t="1600309268726" class="icon" viewBox="0 0 1024 1024" version="1.1" xmlns="http://www.w3.org/2000/svg" p-id="2236" xmlns:xlink="http://www.w3.org/1999/xlink" width="200" height="200"><defs><style type="text/css"></style></defs><path d="M923.5 941.8H136c-19.8 0-35.8-16-35.8-35.8V132.8c0-19.8 16-35.8 35.8-35.8h787.6c19.8 0 35.8 16 35.8 35.8V906c-0.1 19.8-16.1 35.8-35.9 35.8z" fill="#FFCC00" p-id="2237"></path><path d="M832.1 907h-2.5c-4 0-7.2-3.2-7.2-7.2s3.2-7.2 7.2-7.2h2.5c4 0 7.2 3.2 7.2 7.2s-3.2 7.2-7.2 7.2zM903 907h-42.2c-4 0-7.2-3.2-7.2-7.2s3.2-7.2 7.2-7.2H903c7.4 0 13.4-6 13.4-13.4 0-4 3.2-7.2 7.2-7.2s7.2 3.2 7.2 7.2c-0.1 15.4-12.5 27.8-27.8 27.8zM132.4 177.7c-4 0-7.2-3.2-7.2-7.2v-25.1c0-12.9 10.5-23.4 23.4-23.4 4 0 7.2 3.2 7.2 7.2s-3.2 7.2-7.2 7.2c-5 0-9.1 4.1-9.1 9.1v25.1c0 3.9-3.2 7.1-7.1 7.1zM132.4 216.3c-4 0-7.2-3.2-7.2-7.2v-2.8c0-4 3.2-7.2 7.2-7.2s7.2 3.2 7.2 7.2v2.8c-0.1 4-3.3 7.2-7.2 7.2z" fill="#FFFFFF" p-id="2238"></path><path d="M71.4 247.3c-4 0-7.2-3.2-7.2-7.2v-156c0-4 3.2-7.2 7.2-7.2s7.2 3.2 7.2 7.2v156c-0.1 4-3.3 7.2-7.2 7.2zM675.2 933.2H110.4c-25.5 0-46.2-20.7-46.2-46.2V306.4c0-4 3.2-7.2 7.2-7.2s7.2 3.2 7.2 7.2V887c0 17.6 14.3 31.9 31.9 31.9h564.7c4 0 7.2 3.2 7.2 7.2s-3.3 7.1-7.2 7.1zM930.7 933.2H757.5c-4 0-7.2-3.2-7.2-7.2s3.2-7.2 7.2-7.2h173.2c4 0 7.2 3.2 7.2 7.2s-3.2 7.2-7.2 7.2z" p-id="2239"></path><path d="M208.4 471.5c-2.2 0-4.4-1-5.8-2.9-2.4-3.2-1.7-7.7 1.5-10l205.5-152.1c7.8-5.8 18.1-6.9 26.9-2.8l191.4 87c4.9 2.2 10.6 1 14.2-2.9L847.3 164c2.7-2.9 7.2-3.1 10.1-0.4 2.9 2.7 3.1 7.2 0.4 10.1L652.7 397.4c-7.8 8.5-20.2 11.1-30.7 6.3l-191.4-87c-4.1-1.9-8.9-1.3-12.5 1.3L212.7 470c-1.3 1-2.8 1.5-4.3 1.5z" fill="#FFFFFF" p-id="2240"></path><path d="M845.5 261.1c-0.5 0-0.9 0-1.4-0.1-3.9-0.8-6.4-4.5-5.6-8.4l17.4-87.1-87.1 17.4c-3.9 0.8-7.7-1.7-8.4-5.6-0.8-3.9 1.7-7.6 5.6-8.4l108.1-21.6-21.6 108.1c-0.7 3.4-3.7 5.7-7 5.7zM208.4 807.7c-7.9 0-14.3-6.4-14.3-14.3V637.2c0-7.9 6.4-14.3 14.3-14.3s14.3 6.4 14.3 14.3v156.2c0 7.9-6.4 14.3-14.3 14.3zM423.1 807.7c-7.9 0-14.3-6.4-14.3-14.3V500.6c0-7.9 6.4-14.3 14.3-14.3s14.3 6.4 14.3 14.3v292.8c0.1 7.9-6.3 14.3-14.3 14.3zM637.9 807.7c-7.9 0-14.3-6.4-14.3-14.3V539.6c0-7.9 6.4-14.3 14.3-14.3s14.3 6.4 14.3 14.3v253.8c0 7.9-6.4 14.3-14.3 14.3zM852.6 807.7c-7.9 0-14.3-6.4-14.3-14.3V442c0-7.9 6.4-14.3 14.3-14.3s14.3 6.4 14.3 14.3v351.4c0 7.9-6.4 14.3-14.3 14.3z" fill="#FFFFFF" p-id="2241"></path></svg>