<?xml version="1.0" standalone="no"?><!DOCTYPE svg PUBLIC "-//W3C//DTD SVG 1.1//EN" "http://www.w3.org/Graphics/SVG/1.1/DTD/svg11.dtd"><svg t="1600309287831" class="icon" viewBox="0 0 1024 1024" version="1.1" xmlns="http://www.w3.org/2000/svg" p-id="2389" xmlns:xlink="http://www.w3.org/1999/xlink" width="200" height="200"><defs><style type="text/css"></style></defs><path d="M192.3 919.9V125.8c0-21.9 17.8-39.7 39.7-39.7h595.6c21.9 0 39.7 17.8 39.7 39.7v617.7c0 10.5-4.1 20.5-11.5 27.9L680.4 947.9c-7.4 7.5-17.6 11.7-28.1 11.7H232.1c-22 0-39.8-17.8-39.8-39.7z" fill="#FFCC00" p-id="2390"></path><path d="M493.4 281.7H345c-7.9 0-14.3-6.4-14.3-14.3s6.4-14.3 14.3-14.3h148.4c7.9 0 14.3 6.4 14.3 14.3s-6.4 14.3-14.3 14.3zM600.5 417.2H345c-7.9 0-14.3-6.4-14.3-14.3s6.4-14.3 14.3-14.3h255.4c7.9 0 14.3 6.4 14.3 14.3s-6.4 14.3-14.2 14.3zM714.6 545.7H345c-7.9 0-14.3-6.4-14.3-14.3s6.4-14.3 14.3-14.3h369.6c7.9 0 14.3 6.4 14.3 14.3s-6.4 14.3-14.3 14.3zM640.3 941.6V786.5c0-21.9 17.8-39.7 39.7-39.7h154.6" fill="#FFFFFF" p-id="2391"></path><path d="M163.8 376.2c-3.9 0-7.1-3.2-7.1-7.1v-8.9c0-3.9 3.2-7.1 7.1-7.1s7.1 3.2 7.1 7.1v8.9c0 3.9-3.1 7.1-7.1 7.1zM407.1 952.4H203.5c-25.8 0-46.8-21-46.8-46.8v-500c0-3.9 3.2-7.1 7.1-7.1s7.1 3.2 7.1 7.1v499.9c0 18 14.6 32.6 32.6 32.6h203.6c3.9 0 7.1 3.2 7.1 7.1s-3.2 7.2-7.1 7.2zM838.8 480.3c-3.9 0-7.1-3.2-7.1-7.1V111.5c0-18-14.6-32.6-32.6-32.6H203.5c-18 0-32.6 14.6-32.6 32.6v180.9c0 3.9-3.2 7.1-7.1 7.1s-7.1-3.2-7.1-7.1V111.5c0-25.8 21-46.8 46.8-46.8h595.6c25.8 0 46.8 21 46.8 46.8v361.6c0 4-3.2 7.2-7.1 7.2zM838.7 539.2c-3.9 0-7.1 3.2-7.1 7.1v182.9c0 3.6-0.6 7.2-1.7 10.5H680c-25.8 0-46.8 21-46.8 46.8v150.3c-3 0.9-6.2 1.4-9.4 1.4H484.7c-3.9 0-7.1 3.2-7.1 7.1s3.2 7.1 7.1 7.1h139.1c6.4 0 12.8-1.4 18.7-4 0.4-0.1 0.9-0.3 1.3-0.6 4.8-2.3 9.3-5.4 13.1-9.3l175.3-176.4c8.8-8.9 13.6-20.6 13.6-33V546.3c0-3.9-3.2-7.1-7.1-7.1zM647.4 928v-45.5-0.7-95.3c0-18 14.6-32.6 32.6-32.6h140.4L647.4 928z" p-id="2392"></path><path d="M232.2 410.1c-3.9 0-7.1-3.2-7.1-7.1v-50c0-3.9 3.2-7.1 7.1-7.1s7.1 3.2 7.1 7.1v50c0.1 3.9-3.1 7.1-7.1 7.1zM796 574.2c-3.9 0-7.1-3.2-7.1-7.1v-35.7c0-3.9 3.2-7.1 7.1-7.1 3.9 0 7.1 3.2 7.1 7.1v35.7c0 3.9-3.2 7.1-7.1 7.1z" fill="#FFFFFF" p-id="2393"></path><path d="M232.2 438.6m-7.1 0a7.1 7.1 0 1 0 14.2 0 7.1 7.1 0 1 0-14.2 0Z" fill="#FFFFFF" p-id="2394"></path><path d="M824.5 503.8h-14.3c-0.5 0-0.9-0.4-0.9-0.9s0.4-0.9 0.9-0.9h14.3c0.5 0 0.9 0.4 0.9 0.9s-0.4 0.9-0.9 0.9z" fill="#FFFFFF" p-id="2395"></path><path d="M817.4 510.9c-0.5 0-0.9-0.4-0.9-0.9v-14.3c0-0.5 0.4-0.9 0.9-0.9s0.9 0.4 0.9 0.9V510c0 0.5-0.4 0.9-0.9 0.9z" fill="#FFFFFF" p-id="2396"></path></svg>