<?xml version="1.0" standalone="no"?><!DOCTYPE svg PUBLIC "-//W3C//DTD SVG 1.1//EN" "http://www.w3.org/Graphics/SVG/1.1/DTD/svg11.dtd"><svg t="1600309245089" class="icon" viewBox="0 0 1024 1024" version="1.1" xmlns="http://www.w3.org/2000/svg" p-id="1913" xmlns:xlink="http://www.w3.org/1999/xlink" width="200" height="200"><defs><style type="text/css"></style></defs><path d="M910.8 684.5H887c-14.5 0-28.1 6.8-36.8 18.3L731.6 860c-5.6 7.4-16.8 7.4-22.4 0L590.5 702.7a46.13 46.13 0 0 0-36.8-18.3h-407c-27.1 0-49.1-21.8-49.1-48.8v-402c0-26.9 22-48.8 49.1-48.8h764.1c27.1 0 49.1 21.8 49.1 48.8v402.1c0 26.9-22 48.8-49.1 48.8z" fill="#FFCC00" p-id="1914"></path><path d="M258 420.3m-68.1 0a68.1 68.1 0 1 0 136.2 0 68.1 68.1 0 1 0-136.2 0Z" fill="#FFFFFF" p-id="1915"></path><path d="M264.7 467.7c-3.5 0-6.5-2.6-7-6.1-0.5-3.9 2.2-7.4 6.1-8 10-1.3 18.5-8.4 21.6-17.9 1.2-3.7 5.2-5.7 8.9-4.5 3.7 1.2 5.7 5.2 4.5 8.9-4.8 14.6-17.8 25.4-33.1 27.5-0.3 0-0.7 0.1-1 0.1z" fill="#FFCC00" p-id="1916"></path><path d="M76.4 340.3c-3.9 0-7.1-3.2-7.1-7.1v-16.3c0-3.9 3.2-7.1 7.1-7.1 3.9 0 7.1 3.2 7.1 7.1v16.3c0 3.9-3.2 7.1-7.1 7.1zM350 677.4H125.5c-31 0-56.2-25-56.2-55.8V393.3c0-3.9 3.2-7.1 7.1-7.1 3.9 0 7.1 3.2 7.1 7.1v228.2c0 23 18.9 41.7 42 41.7H350c3.9 0 7.1 3.2 7.1 7.1s-3.2 7.1-7.1 7.1zM699.2 858.5c-6.7 0-12.8-3-16.8-8.4L563.6 692.8c-7.3-9.7-18.9-15.4-31.1-15.4H407.1c-3.9 0-7.1-3.2-7.1-7.1s3.2-7.1 7.1-7.1h125.4c16.6 0 32.4 7.9 42.4 21.1l118.8 157.3c2.6 3.5 8.4 3.5 11.1 0L752 779c2.3-3.1 6.8-3.7 9.9-1.4 3.1 2.4 3.7 6.8 1.4 9.9L716 850.1c-4 5.3-10.1 8.4-16.8 8.4z" p-id="1917"></path><path d="M699.2 801.9c-6.7 0-12.8-3-16.8-8.4l-7.9-10.4c-2.4-3.1-1.7-7.5 1.4-9.9 3.1-2.3 7.5-1.7 9.9 1.4l7.9 10.4c2.6 3.5 8.4 3.5 11.1 0l43.5-57.7c2.4-3.1 6.8-3.7 9.9-1.4 3.1 2.4 3.7 6.8 1.4 9.9L716 793.6c-4 5.3-10.1 8.3-16.8 8.3zM776.2 709.3c-1.5 0-3-0.5-4.2-1.4-3.1-2.3-3.7-6.8-1.4-9.9l2.4-3.2c2.4-3.1 6.8-3.8 9.9-1.4 3.1 2.3 3.7 6.8 1.4 9.9l-2.4 3.2c-1.5 1.8-3.6 2.8-5.7 2.8z" fill="#FFFFFF" p-id="1918"></path><path d="M76.4 286.4c-3.9 0-7.1-3.2-7.1-7.1v-59.9c0-30.8 25.2-55.8 56.2-55.8H456c3.9 0 7.1 3.2 7.1 7.1s-3.2 7.1-7.1 7.1H125.5c-23.2 0-42 18.7-42 41.7v59.9c0 3.9-3.2 7-7.1 7z" p-id="1919"></path><path d="M133 321.3c-3.9 0-7.1-3.2-7.1-7.1v-49.5c0-3.9 3.2-7.1 7.1-7.1 3.9 0 7.1 3.2 7.1 7.1v49.5c-0.1 4-3.2 7.1-7.1 7.1z" fill="#FFFFFF" p-id="1920"></path><path d="M133 349.6m-7.1 0a7.1 7.1 0 1 0 14.2 0 7.1 7.1 0 1 0-14.2 0Z" fill="#FFFFFF" p-id="1921"></path><path d="M813.1 716.8c-1.5 0-3-0.5-4.3-1.4-3.1-2.4-3.7-6.8-1.4-9.9l16-21.2c10-13.2 25.8-21.1 42.4-21.1h23.8c23.2 0 42-18.7 42-41.7V219.4c0-23-18.9-41.7-42-41.7H599.7c-3.9 0-7.1-3.2-7.1-7.1s3.2-7.1 7.1-7.1h289.9c31 0 56.2 25 56.2 55.8v402.1c0 30.8-25.2 55.8-56.2 55.8h-23.8c-12.2 0-23.8 5.8-31.1 15.4l-16 21.2c-1.3 2.1-3.5 3-5.6 3z" p-id="1922"></path><path d="M297.9 416.1m-7.1 0a7.1 7.1 0 1 0 14.2 0 7.1 7.1 0 1 0-14.2 0Z" fill="#FFCC00" p-id="1923"></path><path d="M505.3 420.3m-68.1 0a68.1 68.1 0 1 0 136.2 0 68.1 68.1 0 1 0-136.2 0Z" fill="#FFFFFF" p-id="1924"></path><path d="M512.1 467.7c-3.5 0-6.5-2.6-7-6.1-0.5-3.9 2.2-7.4 6.1-8 10-1.3 18.5-8.4 21.6-17.9 1.2-3.7 5.2-5.7 8.9-4.5 3.7 1.2 5.7 5.2 4.5 8.9-4.8 14.6-17.8 25.4-33.1 27.5-0.4 0-0.7 0.1-1 0.1z" fill="#FFCC00" p-id="1925"></path><path d="M545.3 416.1m-7.1 0a7.1 7.1 0 1 0 14.2 0 7.1 7.1 0 1 0-14.2 0Z" fill="#FFCC00" p-id="1926"></path><path d="M752.7 420.3m-68.1 0a68.1 68.1 0 1 0 136.2 0 68.1 68.1 0 1 0-136.2 0Z" fill="#FFFFFF" p-id="1927"></path><path d="M759.5 467.7c-3.5 0-6.5-2.6-7-6.1-0.5-3.9 2.2-7.4 6.1-8 10-1.3 18.5-8.4 21.6-17.9 1.2-3.7 5.2-5.7 8.9-4.5 3.7 1.2 5.7 5.2 4.5 8.9-4.8 14.6-17.8 25.4-33.1 27.5-0.4 0-0.7 0.1-1 0.1z" fill="#FFCC00" p-id="1928"></path><path d="M792.6 416.1m-7.1 0a7.1 7.1 0 1 0 14.2 0 7.1 7.1 0 1 0-14.2 0Z" fill="#FFCC00" p-id="1929"></path></svg>