<?xml version="1.0" standalone="no"?><!DOCTYPE svg PUBLIC "-//W3C//DTD SVG 1.1//EN" "http://www.w3.org/Graphics/SVG/1.1/DTD/svg11.dtd"><svg t="1600309233129" class="icon" viewBox="0 0 1024 1024" version="1.1" xmlns="http://www.w3.org/2000/svg" p-id="1760" xmlns:xlink="http://www.w3.org/1999/xlink" width="200" height="200"><defs><style type="text/css"></style></defs><path d="M649 805.1h155.2c85.7 0 155.2-69.5 155.2-155.2 0-72.5-49.8-133.3-117.1-150.3 0.3-4.9 0.7-9.7 0.7-14.6 0-133.9-108.5-242.4-242.4-242.4-82.9 0-156 41.7-199.7 105.2-13.2-5.2-27.6-8.2-42.7-8.2-64.3 0-116.4 52.1-116.4 116.4 0 13.9 2.5 27.1 7 39.4-79.9 6.4-142.8 73-142.8 154.6 0 85.7 69.5 155.2 155.2 155.2h155.2" fill="#FFCC00" p-id="1761"></path><path d="M402.1 798H225.6c-89.5 0-162.3-72.8-162.3-162.3 0-12.3 1.4-24.5 4.1-36.3 0.9-3.8 4.7-6.2 8.5-5.3 3.8 0.9 6.2 4.7 5.3 8.5-2.5 10.8-3.7 22-3.7 33.2 0 81.6 66.4 148 148 148H402c3.9 0 7.1 3.2 7.1 7.1s-3.1 7.1-7 7.1zM84 579.4c-1 0-2-0.2-2.9-0.6-3.6-1.6-5.2-5.8-3.6-9.4l1-2.2c1.7-3.5 5.9-5.1 9.5-3.4 3.6 1.7 5.1 5.9 3.4 9.5l-0.9 1.9c-1.2 2.6-3.8 4.2-6.5 4.2zM129.4 521.2c-2.1 0-4.2-0.9-5.6-2.7-2.4-3.1-1.9-7.5 1.2-10 22.9-18.1 50-29.6 78.8-33.5-3.1-10.9-4.7-22.1-4.7-33.3 0-68.1 55.4-123.5 123.5-123.5 3.9 0 7.1 3.2 7.1 7.1 0 3.9-3.2 7.1-7.1 7.1-60.2 0-109.3 49-109.3 109.3 0 12.5 2.2 24.9 6.6 37l3.2 8.8-9.3 0.7c-29.3 2.3-56.9 13.2-80 31.4a6.83 6.83 0 0 1-4.4 1.6zM903 720.4c-1.2 0-2.4-0.3-3.6-1-3.4-2-4.6-6.3-2.6-9.7 13-22.4 19.8-48 19.8-74 0-67.8-45.9-126.7-111.7-143.4l-5.7-1.4 0.6-9.9c0.2-3.4 0.5-6.8 0.5-10.2 0-129.8-105.6-235.3-235.3-235.3-53.7 0-104.3 17.7-146.3 51.1-3.1 2.4-7.6 1.9-10-1.1-2.4-3.1-1.9-7.5 1.1-10 44.5-35.4 98.2-54.2 155.1-54.2 137.6 0 249.5 111.9 249.5 249.5 0 3.1-0.2 6.2-0.4 9.3 69 20.1 116.7 83.3 116.7 155.6 0 28.5-7.5 56.6-21.7 81.2-1.2 2.3-3.6 3.5-6 3.5zM768.6 798h-276c-3.9 0-7.1-3.2-7.1-7.1s3.2-7.1 7.1-7.1h276c26.9 0 53.1-7.3 76-21 3.4-2 7.7-0.9 9.8 2.4 2 3.4 0.9 7.7-2.4 9.8-25.1 15-53.9 23-83.4 23z" p-id="1762"></path><path d="M805.1 754.7c-2.9 0-5.6-1.8-6.7-4.7-1.4-3.7 0.5-7.8 4.2-9.1 23.4-8.6 44-24.8 58.1-45.6 2.2-3.3 6.6-4.1 9.9-1.9 3.3 2.2 4.1 6.6 1.9 9.9-15.7 23.3-38.7 41.4-64.9 51-0.8 0.2-1.6 0.4-2.5 0.4zM162.2 608.1c-1.1 0-2.1-0.2-3.2-0.7-3.5-1.8-5-6-3.2-9.5 11.6-23.4 29.4-43 51.6-56.8 3.3-2.1 7.7-1.1 9.8 2.3 2.1 3.3 1.1 7.7-2.3 9.8-19.9 12.4-35.9 30.1-46.4 51.1-1.2 2.3-3.7 3.8-6.3 3.8zM287.3 458.9h-0.7c-3.9-0.4-6.8-3.9-6.4-7.8 4-40 35.9-63.1 57.4-64.5 3.6-0.2 7.3 2.7 7.5 6.7 0.3 3.9-2.7 7.3-6.7 7.5-16 1-40.9 20-44.1 51.7-0.3 3.7-3.4 6.4-7 6.4zM472.3 340.8c-1.9 0-3.7-0.7-5.1-2.2-2.7-2.8-2.6-7.3 0.2-10.1 18.8-18 40.6-32.3 64.5-42.5 3.6-1.5 7.8 0.2 9.3 3.8 1.5 3.6-0.2 7.8-3.8 9.3-22.4 9.5-42.7 22.8-60.2 39.6-1.4 1.4-3.2 2.1-4.9 2.1z" fill="#FFFFFF" p-id="1763"></path><path d="M369.1 390m-7.1 0a7.1 7.1 0 1 0 14.2 0 7.1 7.1 0 1 0-14.2 0Z" fill="#FFFFFF" p-id="1764"></path><path d="M155.8 629.6m-7.1 0a7.1 7.1 0 1 0 14.2 0 7.1 7.1 0 1 0-14.2 0Z" fill="#FFFFFF" p-id="1765"></path></svg>